<svg xmlns="http://www.w3.org/2000/svg" viewBox="0 0 1670.796 557.896">
<defs><linearGradient id="dxLogoGradient"><stop direction="88.16deg" offset="-224.96%" stop-color="#17AFF3"></stop><stop offset="-45.16%" stop-color="#595ADA"></stop><stop offset="62.31%" stop-color="#D540A7"></stop><stop offset="142.78%" stop-color="#FD7842"></stop></linearGradient></defs><path fill-rule="evenodd" clip-rule="evenodd" fill="url('#dxLogoGradient')" d="M0,557.881c4.081-11.452,7.519-19.777,10.794-27.604C81.1,362.236,151.924,194.424,221.483,26.07c8.067-19.542,17.856-26.212,38.843-26.068c152.822,1,305.654,0.144,458.476,1.047c101.153,0.602,188.991,34.544,259.142,109.475c18.181,19.385,36.531,38.578,56.422,59.565c25.694-15.437,49.126-29.319,72.365-43.491c62.25-37.953,124.212-76.363,186.824-113.749c10.499-6.286,23.503-11.884,35.399-11.884c106.307,0,213.156,0,319.285,0c3.612,0,11.437,0,22.557,0c-164.837,99.565-328.621,198.527-492.712,297.622c81.756,79.061,249.061,240.811,249.061,240.811h-32.611h-229.379c-12.931-0.24-29.816-7.869-39.256-16.9c-40.528-38.723-79.203-79.349-119.419-120.166c-88.38,56.543-180.263,99.601-279.899,121.803c-62.167,13.896-126.115,24.708-189.594,26.73c-165.523,5.299-331.217,5.01-496.85,6.936C28.543,557.946,15.184,557.881,0,557.881z M874.873,268.354c-41.251-41.974-77.879-81.973-117.492-118.77c-35.918-33.377-80.626-48.561-129.848-48.621c-66.032-0.084-132.074,0.879-198.107,0.145c-17.566-0.193-25.634,5.924-32.256,22.239c-38.832,95.761-79.061,190.967-118.686,286.401c-3.602,8.67-6.286,17.748-9.946,28.225c76.808,0,149.739-2.145,222.501,0.457C646.582,443.92,760.329,358.912,874.873,268.354z"></path></svg>
