<svg class="icon-eye-closed" width="16" height="16" viewBox="0 0 16 16" fill="none" xmlns="http://www.w3.org/2000/svg">
<path fill-rule="evenodd" clip-rule="evenodd" d="M14.8222 1.85355C15.0175 1.65829 15.0175 1.34171 14.8222 1.14645C14.627 0.951184 14.3104 0.951184 14.1151 1.14645L12.005 3.25653C10.8901 2.482 9.56509 1.92505 8.06 1.92505C3 1.92505 0 7.92505 0 7.92505C0 7.92505 1.16157 10.2482 3.25823 12.0033L1.19366 14.0679C0.998396 14.2632 0.998396 14.5798 1.19366 14.775C1.38892 14.9703 1.7055 14.9703 1.90076 14.775L14.8222 1.85355ZM4.85879 10.4028L6.29159 8.96998C6.10643 8.66645 6 8.3089 6 7.92505C6 6.81505 6.89 5.92505 8 5.92505C8.38385 5.92505 8.7414 6.03148 9.04493 6.21664L10.4777 4.78384C9.79783 4.24654 8.93821 3.92505 8 3.92505C5.8 3.92505 4 5.72505 4 7.92505C4 8.86326 4.32149 9.72288 4.85879 10.4028ZM11.8644 6.88906L13.8567 4.8968C15.2406 6.40616 16 7.92505 16 7.92505C16 7.92505 13 13.925 8.06 13.925C7.09599 13.925 6.20675 13.7073 5.39878 13.3547L6.96401 11.7895C7.29473 11.8779 7.64207 11.925 8 11.925C10.22 11.925 12 10.145 12 7.92505C12 7.56712 11.9529 7.21978 11.8644 6.88906ZM9.33847 9.41501L9.48996 9.26352C9.44222 9.31669 9.39164 9.36726 9.33847 9.41501Z" fill="white"/>
</svg>
