<svg class="icon-eye" width="16" height="16" viewBox="0 0 16 16" fill="none" xmlns="http://www.w3.org/2000/svg">
<path d="M8 2.36365C4.36364 2.36365 1.25818 4.62547 0 7.81819C1.25818 11.0109 4.36364 13.2727 8 13.2727C11.6364 13.2727 14.7418 11.0109 16 7.81819C14.7418 4.62547 11.6364 2.36365 8 2.36365ZM8 11.4546C5.99273 11.4546 4.36364 9.82547 4.36364 7.81819C4.36364 5.81092 5.99273 4.18183 8 4.18183C10.0073 4.18183 11.6364 5.81092 11.6364 7.81819C11.6364 9.82547 10.0073 11.4546 8 11.4546ZM8 5.63637C6.79273 5.63637 5.81818 6.61092 5.81818 7.81819C5.81818 9.02547 6.79273 10 8 10C9.20727 10 10.1818 9.02547 10.1818 7.81819C10.1818 6.61092 9.20727 5.63637 8 5.63637Z" fill="white"/>
</svg>
