<svg width="32" height="16" viewBox="0 0 32 16" fill="none" xmlns="http://www.w3.org/2000/svg">
<path d="M3.85714 0L7.71429 1.838V3.42857L3.85714 1.59057L5.03789e-07 3.42857L4.34262e-07 1.838L3.85714 0Z" fill="#9E9E9E"/>
<path d="M3.85714 4.14286C1.72653 4.14286 5.03789e-07 5.86939 5.03789e-07 8C5.03789e-07 10.1306 1.72653 11.8571 3.85714 11.8571C5.98776 11.8571 7.71429 10.1306 7.71429 8C7.71429 5.86939 5.98776 4.14286 3.85714 4.14286Z" fill="#9E9E9E"/>
<path d="M3.85714 16L0 14.162L6.95265e-08 12.5714L3.85714 14.4094L7.71429 12.5714V14.162L3.85714 16Z" fill="#9E9E9E"/>
<path fill-rule="evenodd" clip-rule="evenodd" d="M15.2857 4.14286C13.1551 4.14286 11.4286 5.86939 11.4286 8C11.4286 10.1306 13.1551 11.8571 15.2857 11.8571C17.4163 11.8571 19.1429 10.1306 19.1429 8C19.1429 5.86939 17.4163 4.14286 15.2857 4.14286ZM12.898 8C12.898 9.31878 13.9669 10.3878 15.2857 10.3878C16.6045 10.3878 17.6735 9.31878 17.6735 8C17.6735 6.68122 16.6045 5.61225 15.2857 5.61225C13.9669 5.61225 12.898 6.68122 12.898 8Z" fill="#9E9E9E"/>
<path fill-rule="evenodd" clip-rule="evenodd" d="M23.8693 8.8302C24.8627 8.5547 25.5942 7.63633 25.6015 6.54898V6.53061V6.51224C25.5906 5.20082 24.5352 4.14286 23.2361 4.14286H20.1429V5.53143L21.3074 7.44531H20.1465V11.8571H21.6021V8.91469H22.2135L24.0028 11.8571H25.7143L23.8693 8.8302ZM23.025 7.44898H23.2397C23.7419 7.44898 24.1495 7.03755 24.1495 6.53061C24.1495 6.02367 23.7419 5.61225 23.2397 5.61225H21.9005L23.025 7.44898Z" fill="#9E9E9E"/>
<path d="M28.15 11.8571H26.5L28.436 8.00367L26.5 4.14286H28.15L29.2537 6.36163L30.3867 4.14286H32L28.15 11.8571Z" fill="#9E9E9E"/>
</svg>
