<svg width="64" height="32" viewBox="0 0 64 32" fill="none" xmlns="http://www.w3.org/2000/svg">
<path d="M7.71429 0L15.4286 3.67599V6.85714L7.71429 3.18115L1.00758e-06 6.85714L8.68525e-07 3.67599L7.71429 0Z" fill="#3D53F5"/>
<path d="M7.71429 8.28571C3.45306 8.28571 1.00758e-06 11.7388 1.00758e-06 16C1.00758e-06 20.2612 3.45306 23.7143 7.71429 23.7143C11.9755 23.7143 15.4286 20.2612 15.4286 16C15.4286 11.7388 11.9755 8.28571 7.71429 8.28571Z" fill="#3D53F5"/>
<path d="M7.71429 32L0 28.324L1.39053e-07 25.1429L7.71429 28.8189L15.4286 25.1429V28.324L7.71429 32Z" fill="#3D53F5"/>
<path fill-rule="evenodd" clip-rule="evenodd" d="M30.5714 8.28572C26.3102 8.28572 22.8571 11.7388 22.8571 16C22.8571 20.2612 26.3102 23.7143 30.5714 23.7143C34.8327 23.7143 38.2857 20.2612 38.2857 16C38.2857 11.7388 34.8327 8.28572 30.5714 8.28572ZM25.7959 16C25.7959 18.6376 27.9339 20.7755 30.5714 20.7755C33.209 20.7755 35.3469 18.6376 35.3469 16C35.3469 13.3624 33.209 11.2245 30.5714 11.2245C27.9339 11.2245 25.7959 13.3624 25.7959 16Z" fill="#3D53F5"/>
<path fill-rule="evenodd" clip-rule="evenodd" d="M47.7385 17.6604C49.7255 17.1094 51.1884 15.2727 51.203 13.098V13.0612V13.0245C51.1811 10.4016 49.0704 8.28572 46.4721 8.28572H40.2857V11.0629L42.6147 14.8906H40.293V23.7143H43.2043V17.8294H44.427L48.0056 23.7143H51.4286L47.7385 17.6604ZM46.05 14.898H46.4794C47.4838 14.898 48.299 14.0751 48.299 13.0612C48.299 12.0473 47.4838 11.2245 46.4794 11.2245H43.8011L46.05 14.898Z" fill="#3D53F5"/>
<path d="M56.3 23.7143H53L56.872 16.0073L53 8.28572H56.3L58.5073 12.7233L60.7733 8.28572H64L56.3 23.7143Z" fill="#3D53F5"/>
</svg>
